Coordinates
version=1
nRows=13
nColumns=36
inDegrees=yes

Units are S.I. units (second, meters, Newtons, ...)
If the header above contains a line with 'inDegrees', this indicates whether rotational values are in degrees (yes) or radians (no).

endheader
time	pelvis_tilt	pelvis_list	pelvis_rotation	pelvis_tx	pelvis_ty	pelvis_tz	hip_flexion_r	hip_adduction_r	hip_rotation_r	knee_angle_r	knee_angle_r_beta	ankle_angle_r	subtalar_angle_r	mtp_angle_r	hip_flexion_l	hip_adduction_l	hip_rotation_l	knee_angle_l	knee_angle_l_beta	ankle_angle_l	subtalar_angle_l	mtp_angle_l	lumbar_extension	lumbar_bending	lumbar_rotation	arm_flex_r	arm_add_r	arm_rot_r	elbow_flex_r	pro_sup_r	arm_flex_l	arm_add_l	arm_rot_l	elbow_flex_l	pro_sup_l
      0.00000000	      3.60204021	     -5.86485161	      5.48825700	      0.67299055	      0.96226995	     -0.34449945	     24.16856108	      0.64105450	     -5.86380749	      7.63199241	      0.13320340	      4.18307767	    -13.86596456	     -6.30845649	     -5.25801971	      3.35956358	     -0.72424565	      9.40964564	      0.16422930	      7.11261576	    -14.36422077	     -6.30845649	     -8.55873100	     -3.41856296	      2.64593807	     56.62128386	     13.13358391	     66.45308781	    119.78091623	     95.88624593	     42.81952358	      9.48075101	     53.55727840	    107.56681268	     98.74057063
      0.01666670	      2.98006666	     -6.05569720	      6.92976783	      0.67523031	      0.95731614	     -0.34589748	     23.65783800	     -0.20321106	     -4.88488914	      5.37579107	      0.09382525	      3.36940369	    -15.76088708	     -6.51239740	     -2.16369762	      3.04222215	     -0.83965324	     12.00905801	      0.20959760	      9.04970999	    -12.98923504	     -6.51239740	     -7.74458970	     -2.49903072	      1.77370956	     59.32216764	     13.86398344	     68.27213666	    117.74635862	    104.12712583	     41.26409381	      9.34239026	     55.49692956	    112.41060033	    100.19197370
      0.03333330	      3.11196846	     -5.41381768	      6.51848437	      0.67640377	      0.95495849	     -0.34544981	     23.38732649	     -0.63793261	     -3.71673176	      4.20564213	      0.07340230	      4.26441395	    -13.76597872	     -6.54402225	     -0.39549739	      3.29064187	     -3.35756702	     15.33687852	      0.26767903	     11.11841677	    -12.50031591	     -6.54402225	     -8.17171996	     -3.63806262	      1.82880792	     59.60640562	     13.41133696	     69.22614878	    118.31974724	    104.43338067	     40.74728912	      9.05068716	     55.69743816	    114.61497358	     99.66525229
      0.05000000	      3.04428021	     -4.94044519	      6.35554048	      0.67738802	      0.94991551	     -0.34486167	     23.49801517	     -0.94067728	     -3.43417063	      3.53837263	      0.06175625	      4.78032699	    -12.38277414	     -6.63927282	      0.55562936	      3.56138262	     -4.04533046	     17.27792181	      0.30155662	     12.53287226	    -12.47908406	     -6.63927282	     -8.18539096	     -4.37774689	      2.13641313	     60.05305480	     13.32626607	     70.47222934	    117.88210742	    102.64647438	     40.68592468	      9.02192393	     56.05233728	    114.89729046	     96.17742906
      0.06666670	      3.35604716	     -5.01561791	      5.70836458	      0.67775638	      0.94649532	     -0.34469433	     23.69840340	     -0.42445170	     -3.09949040	      4.04005819	      0.07051232	      5.09568217	    -12.43135216	     -6.65261521	      1.36001135	      3.18368523	     -4.67730840	     19.73530042	      0.34444597	     13.98347811	    -13.05182726	     -6.65261521	     -8.69932076	     -4.18944968	      2.16948076	     59.87326537	     13.62853775	     71.82690428	    117.56386878	    102.87607566	     40.19171505	      9.00222320	     55.80781753	    113.92104726	     95.82038715
      0.08333330	      3.22313887	     -4.95076262	      5.17251145	      0.67470990	      0.94165999	     -0.34227577	     24.45190346	     -0.17817765	     -3.01179279	      4.12208126	      0.07194389	      5.42647166	    -12.46390783	     -6.74355504	      2.61807173	      3.03508957	     -4.96619871	     21.77244976	      0.38000093	     14.83691688	    -13.70363675	     -6.74355504	     -8.66564421	     -4.24205334	      2.42289775	     59.47052033	     13.73062883	     72.90114548	    117.67138288	    101.44687558	     39.92043915	      8.90692100	     55.36343187	    113.53117632	     93.64155133
      0.10000000	      3.32363514	     -4.99301452	      4.79327452	      0.67545680	      0.93640771	     -0.34219996	     25.11793544	     -0.06981800	     -2.94849158	      4.43103473	      0.07733615	      5.14363884	    -13.26303752	     -6.80788343	      3.81922113	      2.79181096	     -5.33198328	     24.03213682	      0.41943991	     15.65516454	    -14.81637589	     -6.80788343	     -9.01531550	     -3.95466728	      2.44130813	     59.43267276	     14.09821471	     73.55591753	    117.43135560	    102.13458929	     39.50957092	      8.86094184	     54.66414619	    114.39644359	     91.30868340
      0.11666670	      3.50647034	     -5.06597804	      4.46251980	      0.67472612	      0.93685217	     -0.34159269	     25.47617131	     -0.08685894	     -3.64535662	      4.52730930	      0.07901645	      4.66859807	    -13.77227231	     -6.88849943	      4.52428410	      2.57308221	     -5.60940145	     25.52995716	      0.44558181	     16.22012670	    -15.55472421	     -6.88849943	     -9.64733957	     -4.02405392	      2.89725899	     59.01234046	     13.78626675	     73.89972272	    117.53763736	    100.33638466	     39.15488292	      9.23226114	     54.44537566	    115.07247742	     89.13304743
      0.13333330	      3.73301513	     -4.95521760	      3.77342107	      0.67479955	      0.93397928	     -0.34106672	     25.88302773	     -0.20200239	     -4.03994258	      4.64263794	      0.08102932	      3.75683186	    -14.94683822	     -6.89900915	      5.18543825	      2.54187293	     -6.20156891	     27.00178100	      0.47126998	     16.57770337	    -16.74326731	     -6.89900915	    -10.66204176	     -4.15904830	      3.08698384	     59.03880611	     13.97767293	     74.49894628	    117.52655039	    100.67330219	     38.61196770	      9.31800654	     54.05489873	    116.02149748	     88.83366959
      0.15000000	      4.01524238	     -4.66875112	      3.70186385	      0.67466382	      0.93269609	     -0.34021019	     26.18630724	     -0.50555733	     -4.13406344	      4.34608744	      0.07585354	      3.23864002	    -14.60707292	     -6.90714425	      6.42942071	      2.44083346	     -6.61449894	     29.68900576	      0.51817090	     16.74683444	    -17.72382701	     -6.90714425	    -11.55803751	     -4.67851593	      3.42010458	     58.88426029	     13.98321628	     74.60600355	    117.48303889	    100.90445544	     38.36663097	      9.35370367	     54.14584607	    116.65496602	     88.60438203
      0.16666670	      4.19605947	     -4.27274598	      3.71021156	      0.67161000	      0.92623442	     -0.33800379	     26.79964547	     -0.94206087	     -4.26677327	      4.29902537	      0.07503215	      2.89439723	    -13.87851798	     -6.92346434	      8.22633093	      2.42659240	     -6.82699975	     33.08078805	      0.57736867	     16.83396068	    -18.38496211	     -6.92346434	    -12.41189258	     -5.34458327	      3.43092598	     58.77261708	     14.22165088	     74.50990247	    117.84618555	    101.23343978	     38.20517468	      9.20090241	     54.23180361	    117.54415714	     88.16131530
      0.18333330	      4.44219415	     -3.88887265	      3.67119227	      0.67172569	      0.92044239	     -0.33737776	     27.39367250	     -1.28350791	     -4.57926052	      4.55516677	      0.07950266	      2.63300427	    -13.70642750	     -6.93600256	      9.68647119	      2.45871483	     -7.20494517	     36.07115012	      0.62956033	     17.45589833	    -18.66760386	     -6.93600256	    -13.30553798	     -5.88924213	      3.71926193	     59.01921415	     14.31262908	     74.43530361	    118.25786729	    101.60403032	     38.42109062	      9.48145697	     54.24826310	    118.23918253	     87.85350261
      0.20000000	      4.58150021	     -3.54884360	      3.31955447	      0.67181066	      0.91611920	     -0.33667760	     28.09442842	     -1.50801172	     -4.87930998	      4.63811383	      0.08095036	      2.21313863	    -13.98238851	     -6.95125055	     10.59884039	      2.59962678	     -7.72626486	     37.99643080	      0.66316282	     18.79232775	    -18.52210067	     -6.95125055	    -14.06672313	     -6.48262200	      3.90154316	     59.16146893	     14.53506951	     74.76639863	    118.41709834	    102.09768574	     38.44727139	      9.70407767	     54.11070331	    119.02054526	     87.52170537
